<svg width="24" height="24" viewBox="0 0 24 24" fill="none" xmlns="http://www.w3.org/2000/svg">
<g clip-path="url(#clip0)">
<path d="M16.401 12.5539C16.0409 12.5583 15.6851 12.4762 15.3634 12.3143C15.0418 12.1524 14.7637 11.9155 14.5528 11.6237C14.5326 11.5883 14.522 11.5482 14.5222 11.5074V9.89791C14.5227 9.85699 14.5348 9.81706 14.5572 9.78283C14.5797 9.74861 14.6114 9.72152 14.6488 9.70479C14.6861 9.68805 14.7275 9.68235 14.7679 9.68838C14.8084 9.69441 14.8463 9.71191 14.8772 9.7388C14.8894 9.74492 15.685 10.467 16.401 10.467C17.221 10.467 17.9064 9.7082 17.9126 9.70208C17.9414 9.66884 17.98 9.6456 18.0229 9.6357C18.0658 9.6258 18.1107 9.62976 18.1512 9.647C18.1905 9.66271 18.2242 9.68968 18.2482 9.72453C18.2721 9.75938 18.2853 9.80055 18.2859 9.84283V11.5074C18.2873 11.5417 18.2788 11.5757 18.2614 11.6053C18.243 11.642 17.7718 12.5539 16.401 12.5539ZM14.9506 11.4401C15.1235 11.658 15.3443 11.8332 15.5958 11.9521C15.8473 12.071 16.1228 12.1303 16.401 12.1255C17.3557 12.1255 17.7596 11.6053 17.8575 11.4523V10.3263C17.527 10.5894 17.0068 10.8954 16.401 10.8954C15.7951 10.8954 15.2994 10.5833 14.9506 10.3385V11.4401Z" fill="#100249"/>
<path d="M18.904 6.74643C18.8625 6.74571 18.8221 6.73296 18.7878 6.70971C18.758 6.68917 18.7335 6.66177 18.7165 6.62983C18.6994 6.59788 18.6903 6.56232 18.6899 6.52612C18.6899 5.25322 18.4451 4.70856 18.2554 4.48213C18.2199 4.76793 18.1164 5.04105 17.9534 5.27853C17.7905 5.51601 17.5729 5.7109 17.319 5.84683C17.2843 5.86372 17.2456 5.87088 17.2071 5.86757C17.1686 5.86425 17.1317 5.85057 17.1003 5.82799C17.0689 5.80541 17.0443 5.77475 17.0289 5.73928C17.0135 5.70381 17.0081 5.66485 17.013 5.62652C17.0314 5.46129 16.9518 5.20426 16.8539 4.96559C16.5235 5.65712 15.7891 6.48328 14.9568 6.48328H12.9985C12.9511 6.48352 12.905 6.46803 12.8673 6.43924C12.8297 6.41044 12.8026 6.36998 12.7904 6.32417C12.6359 5.6454 12.5559 4.95181 12.5518 4.2557C12.5518 2.00976 14.4489 1 16.3276 1C17.7535 1 18.3227 1.41614 18.5185 1.61809C20.1219 1.67929 20.3299 3.06847 20.3299 4.2863C20.3299 6.1161 19.0448 6.70359 18.9897 6.72807C18.9629 6.74058 18.9336 6.74686 18.904 6.74643ZM18.0534 3.88851H18.0656C18.1697 3.89463 19.0203 4.01091 19.1121 6.14058C19.4365 5.88355 19.9016 5.32053 19.9016 4.2863C19.9016 2.67681 19.4854 2.04647 18.4145 2.04647C18.3783 2.04602 18.3427 2.03689 18.3108 2.01985C18.2788 2.00282 18.2514 1.97837 18.2309 1.94856C18.2309 1.94856 17.8514 1.42838 16.3276 1.42838C14.6631 1.42838 12.9801 2.3035 12.9801 4.2557C12.9871 4.86004 13.0506 5.4624 13.1699 6.0549H14.9568C15.734 6.0549 16.5112 4.93499 16.603 4.37809C16.6121 4.33542 16.6329 4.29615 16.6632 4.26476C16.6935 4.23338 16.732 4.21115 16.7744 4.20062C16.8182 4.19308 16.8633 4.19898 16.9037 4.21755C16.9441 4.23612 16.978 4.26649 17.0008 4.30466C17.0375 4.36585 17.3007 4.81871 17.4047 5.25934C17.6128 5.0635 17.8637 4.69632 17.8392 4.11494C17.8384 4.08601 17.8433 4.0572 17.8536 4.03016C17.8639 4.00312 17.8795 3.97837 17.8994 3.95735C17.9193 3.93632 17.9431 3.91941 17.9695 3.9076C17.996 3.89579 18.0245 3.88931 18.0534 3.88851Z" fill="#100249"/>
<path d="M16.4254 10.8959C15.1341 10.8959 13.6348 9.37819 13.6348 8.38679V6.26937C13.6348 6.21256 13.6573 6.15808 13.6975 6.11791C13.7377 6.07774 13.7921 6.05518 13.849 6.05518C13.9058 6.05518 13.9602 6.07774 14.0004 6.11791C14.0406 6.15808 14.0631 6.21256 14.0631 6.26937V8.38679C14.0631 9.15788 15.4095 10.4675 16.4254 10.4675C17.4412 10.4675 18.6897 8.99265 18.6897 8.38679V6.28161C18.6897 6.2248 18.7122 6.17032 18.7524 6.13015C18.7926 6.08998 18.847 6.06742 18.9039 6.06742C18.9322 6.06657 18.9604 6.07153 18.9868 6.08199C19.0132 6.09246 19.0371 6.1082 19.0572 6.12827C19.0773 6.14833 19.093 6.17228 19.1035 6.19865C19.1139 6.22502 19.1189 6.25325 19.118 6.28161V8.38679C19.118 9.26192 17.6921 10.8959 16.4254 10.8959Z" fill="#100249"/>
<path d="M13.8491 8.1724L13.7818 8.16016C13.7451 8.14792 12.7843 7.83582 12.7843 6.94234V6.19573C12.7834 6.16737 12.7884 6.13914 12.7989 6.11277C12.8093 6.0864 12.8251 6.06245 12.8451 6.04239C12.8652 6.02233 12.8891 6.00658 12.9155 5.99612C12.9419 5.98565 12.9701 5.98069 12.9985 5.98154C13.0553 5.98154 13.1097 6.0041 13.1499 6.04427C13.1901 6.08444 13.2127 6.13892 13.2127 6.19573V6.94234C13.2127 7.52371 13.9042 7.75014 13.9103 7.75014C13.9624 7.76251 14.0079 7.79391 14.038 7.83816C14.068 7.88241 14.0804 7.93631 14.0728 7.98925C14.0651 8.0422 14.0379 8.09036 13.9965 8.12425C13.9551 8.15815 13.9025 8.17532 13.8491 8.1724Z" fill="#100249"/>
<path d="M18.9039 8.17188C18.8504 8.1748 18.7979 8.15763 18.7565 8.12373C18.7151 8.08984 18.6879 8.04168 18.6802 7.98873C18.6725 7.93579 18.6849 7.88189 18.715 7.83764C18.7451 7.79339 18.7906 7.76199 18.8427 7.74962C18.8794 7.73738 19.5403 7.51707 19.5403 6.94182V5.80355C19.5403 5.74674 19.5629 5.69226 19.603 5.65209C19.6432 5.61192 19.6977 5.58936 19.7545 5.58936C19.8113 5.58936 19.8658 5.61192 19.906 5.65209C19.9461 5.69226 19.9687 5.74674 19.9687 5.80355V6.94182C19.9687 7.8353 19.0079 8.1474 18.9712 8.15964L18.9039 8.17188Z" fill="#100249"/>
<path d="M16.4008 18.2518C12.0068 18.2518 9.9934 17.1869 9.91384 17.1441C9.87603 17.1248 9.84479 17.0948 9.82409 17.0577C9.80339 17.0207 9.79416 16.9783 9.79757 16.936C9.82817 16.5566 10.0913 13.1785 11.1194 12.3952C12.1475 11.6119 14.6016 11.312 14.7056 11.2936C14.7474 11.2894 14.7896 11.2969 14.8275 11.3152C14.8653 11.3336 14.8973 11.3622 14.9198 11.3977C14.9381 11.4283 15.3849 12.1259 16.4008 12.1259C17.4166 12.1259 17.8695 11.4405 17.8817 11.4099C17.9026 11.3721 17.9339 11.3411 17.9719 11.3205C18.0098 11.2999 18.0529 11.2906 18.0959 11.2936C18.2061 11.312 20.6723 11.6241 21.6882 12.3952C22.7163 13.1785 22.9795 16.5566 23.0101 16.936C23.0133 16.9776 23.0046 17.0192 22.9851 17.056C22.9656 17.0929 22.9361 17.1234 22.8999 17.1441C22.8142 17.1869 20.8376 18.2518 16.4008 18.2518ZM10.2382 16.8259C10.7339 17.0462 12.7228 17.8234 16.4008 17.8234C20.0787 17.8234 22.0799 17.0462 22.5695 16.8259C22.4777 15.7427 22.135 13.2764 21.4251 12.7379C20.6295 12.1259 18.7018 11.8138 18.1755 11.7404C17.9858 12.0035 17.4595 12.5543 16.4008 12.5543C15.342 12.5543 14.8341 11.9913 14.6383 11.7404C14.1242 11.8138 12.1843 12.1259 11.3826 12.7379C10.5809 13.3499 10.33 15.7427 10.2382 16.8259Z" fill="#100249"/>
<path d="M12.4351 17.7804C12.3783 17.7804 12.3239 17.7578 12.2837 17.7176C12.2435 17.6775 12.2209 17.623 12.2209 17.5662V16.5809C12.2209 16.5241 12.2435 16.4696 12.2837 16.4294C12.3239 16.3893 12.3783 16.3667 12.4351 16.3667C12.4919 16.3667 12.5464 16.3893 12.5866 16.4294C12.6268 16.4696 12.6493 16.5241 12.6493 16.5809V17.5662C12.6493 17.623 12.6268 17.6775 12.5866 17.7176C12.5464 17.7578 12.4919 17.7804 12.4351 17.7804Z" fill="#100249"/>
<path d="M20.3604 17.7804C20.3036 17.7804 20.2491 17.7578 20.209 17.7176C20.1688 17.6775 20.1462 17.623 20.1462 17.5662V16.5809C20.1462 16.5241 20.1688 16.4696 20.209 16.4294C20.2491 16.3893 20.3036 16.3667 20.3604 16.3667C20.4172 16.3667 20.4717 16.3893 20.5119 16.4294C20.5521 16.4696 20.5746 16.5241 20.5746 16.5809V17.5662C20.5746 17.623 20.5521 17.6775 20.5119 17.7176C20.4717 17.7578 20.4172 17.7804 20.3604 17.7804Z" fill="#100249"/>
<path d="M13.6411 4.83048C13.5883 4.83083 13.5372 4.81165 13.4977 4.77664C13.4581 4.74162 13.4329 4.69323 13.4269 4.64077C13.4269 4.62241 13.2249 2.68245 14.9568 2.03988C15.0104 2.01959 15.0698 2.02141 15.122 2.04494C15.1743 2.06847 15.215 2.11178 15.2353 2.16534C15.2556 2.2189 15.2537 2.27832 15.2302 2.33054C15.2067 2.38276 15.1634 2.4235 15.1098 2.44378C13.69 2.97008 13.8492 4.52449 13.8553 4.59181C13.8605 4.64838 13.8437 4.70479 13.8084 4.74926C13.773 4.79374 13.7219 4.82283 13.6656 4.83048H13.6411Z" fill="#100249"/>
<path d="M15.6664 2.26071C15.6096 2.26558 15.5532 2.24769 15.5096 2.21096C15.466 2.17423 15.4388 2.12169 15.4339 2.06488C15.429 2.00807 15.4469 1.95166 15.4836 1.90805C15.5204 1.86444 15.5729 1.8372 15.6297 1.83233L15.9541 1.78337C15.9819 1.77814 16.0105 1.77864 16.0381 1.78483C16.0657 1.79102 16.0918 1.80279 16.1147 1.8194C16.1376 1.83601 16.1569 1.85712 16.1714 1.88144C16.1858 1.90577 16.1952 1.93278 16.1989 1.96085C16.2077 2.01683 16.194 2.07402 16.1607 2.1199C16.1274 2.16578 16.0773 2.19661 16.0214 2.20564L15.697 2.26071H15.6664Z" fill="#100249"/>
<path d="M8.2739 16.5314C8.2171 16.5314 8.16262 16.5088 8.12245 16.4687C8.08228 16.4285 8.05971 16.374 8.05971 16.3172V14.8179C7.74761 15.0933 7.25191 15.3931 6.60934 15.3931C5.96676 15.3931 5.47719 15.0504 5.15284 14.7505V16.3172C5.15284 16.374 5.13027 16.4285 5.0901 16.4687C5.04994 16.5088 4.99546 16.5314 4.93865 16.5314C4.91029 16.5322 4.88206 16.5273 4.85569 16.5168C4.82932 16.5063 4.80537 16.4906 4.78531 16.4705C4.76525 16.4505 4.7495 16.4265 4.73904 16.4002C4.72857 16.3738 4.72361 16.3456 4.72446 16.3172V14.2059C4.72446 14.1609 4.7386 14.1171 4.76489 14.0807C4.79117 14.0442 4.82827 14.0169 4.87092 14.0027C4.91356 13.9885 4.9596 13.988 5.00251 14.0014C5.04542 14.0148 5.08303 14.0414 5.11 14.0774C5.11612 14.0835 5.77093 14.9647 6.60934 14.9647C7.44774 14.9647 8.09031 14.1569 8.09643 14.1508C8.12374 14.1136 8.16207 14.0858 8.206 14.0716C8.24993 14.0573 8.29723 14.0572 8.34122 14.0713C8.38374 14.0853 8.42078 14.1124 8.44713 14.1486C8.47348 14.1848 8.4878 14.2284 8.48809 14.2732V16.3172C8.48894 16.3456 8.48398 16.3738 8.47352 16.4002C8.46305 16.4265 8.4473 16.4505 8.42724 16.4705C8.40718 16.4906 8.38323 16.5063 8.35686 16.5168C8.33049 16.5273 8.30226 16.5322 8.2739 16.5314Z" fill="#100249"/>
<path d="M6.628 15.3932C4.95119 15.3932 3.8374 13.0799 3.8374 12.1375V11.3052L4.26578 12.1375C4.26578 12.9575 5.28778 14.9648 6.628 14.9648C8.09062 14.9648 8.8923 12.8413 8.8923 12.1375V10.9013C8.8923 10.8445 8.91487 10.79 8.95504 10.7498C8.99521 10.7097 9.04969 10.6871 9.10649 10.6871C9.13485 10.6863 9.16308 10.6912 9.18945 10.7017C9.21582 10.7121 9.23977 10.7279 9.25983 10.748C9.27989 10.768 9.29564 10.792 9.30611 10.8183C9.31657 10.8447 9.32153 10.8729 9.32068 10.9013V12.1375C9.32068 12.8963 8.48228 15.3932 6.628 15.3932Z" fill="#100249"/>
<path d="M6.6096 22.7504C2.20951 22.7504 0.196116 21.6856 0.116559 21.6427C0.0749898 21.6201 0.0418275 21.5846 0.0219865 21.5416C0.00214557 21.4987 -0.00331829 21.4504 0.00640427 21.4041C0.0247635 21.3123 0.520462 19.1581 1.28543 18.1545C2.0504 17.1509 4.73696 15.8657 4.84711 15.8168C4.8729 15.8003 4.90191 15.7896 4.93219 15.7853C4.96247 15.781 4.99331 15.7833 5.02265 15.7919C5.05199 15.8005 5.07914 15.8153 5.10227 15.8353C5.12541 15.8553 5.144 15.8801 5.15679 15.9078C5.16957 15.9356 5.17626 15.9658 5.17641 15.9964C5.17655 16.027 5.17015 16.0572 5.15762 16.0851C5.1451 16.113 5.12674 16.1379 5.1038 16.1581C5.08085 16.1783 5.05384 16.1934 5.02459 16.2023C5.00011 16.2145 2.36862 17.4324 1.62813 18.4115C1.03452 19.1949 0.593899 20.8105 0.465384 21.3368C0.997801 21.5693 2.98059 22.322 6.6096 22.322C10.2386 22.322 12.2275 21.5693 12.7538 21.3306C12.6314 20.8105 12.2092 19.1643 11.5911 18.4176C10.8445 17.518 8.20685 16.2145 8.18237 16.2023C8.15705 16.1898 8.13444 16.1725 8.11582 16.1513C8.0972 16.1301 8.08293 16.1055 8.07384 16.0788C8.06475 16.0521 8.06101 16.0238 8.06283 15.9957C8.06465 15.9675 8.072 15.94 8.08445 15.9147C8.09691 15.8894 8.11423 15.8667 8.13543 15.8481C8.15662 15.8295 8.18128 15.8152 8.20799 15.8061C8.2347 15.7971 8.26293 15.7933 8.29109 15.7951C8.31924 15.797 8.34677 15.8043 8.37208 15.8168C8.48224 15.8718 11.1137 17.1692 11.9215 18.1484C12.7293 19.1275 13.1883 21.3184 13.2067 21.4102C13.2156 21.455 13.2103 21.5014 13.1917 21.543C13.173 21.5847 13.1419 21.6195 13.1026 21.6427C13.017 21.6856 11.0403 22.7504 6.6096 22.7504Z" fill="#100249"/>
<path d="M2.63777 22.2789C2.58097 22.2789 2.52649 22.2563 2.48632 22.2162C2.44615 22.176 2.42358 22.1215 2.42358 22.0647V21.0794C2.42358 21.0226 2.44615 20.9681 2.48632 20.928C2.52649 20.8878 2.58097 20.8652 2.63777 20.8652C2.69458 20.8652 2.74906 20.8878 2.78923 20.928C2.8294 20.9681 2.85197 21.0226 2.85197 21.0794V22.0647C2.85197 22.1215 2.8294 22.176 2.78923 22.2162C2.74906 22.2563 2.69458 22.2789 2.63777 22.2789Z" fill="#100249"/>
<path d="M10.5628 22.2789C10.506 22.2789 10.4515 22.2563 10.4114 22.2162C10.3712 22.176 10.3486 22.1215 10.3486 22.0647V21.0794C10.3486 21.0226 10.3712 20.9681 10.4114 20.928C10.4515 20.8878 10.506 20.8652 10.5628 20.8652C10.6196 20.8652 10.6741 20.8878 10.7143 20.928C10.7544 20.9681 10.777 21.0226 10.777 21.0794V22.0647C10.777 22.1215 10.7544 22.176 10.7143 22.2162C10.6741 22.2563 10.6196 22.2789 10.5628 22.2789Z" fill="#100249"/>
<path d="M6.57845 18.2093C5.03627 18.2093 3.83681 16.6916 3.78785 16.6243C3.77016 16.6021 3.75719 16.5765 3.74973 16.5492C3.74228 16.5218 3.74051 16.4932 3.74452 16.4651C3.74854 16.437 3.75825 16.41 3.77307 16.3858C3.78788 16.3616 3.80749 16.3407 3.83069 16.3244C3.87538 16.2896 3.93201 16.274 3.9882 16.2809C4.04439 16.2878 4.09557 16.3166 4.13055 16.3611C4.13667 16.3795 5.24434 17.7809 6.57845 17.7809C7.91255 17.7809 9.0753 16.3734 9.08754 16.3611C9.1048 16.3388 9.12641 16.3203 9.15105 16.3066C9.1757 16.2929 9.20287 16.2844 9.23091 16.2815C9.25895 16.2787 9.28729 16.2815 9.31419 16.29C9.34109 16.2984 9.366 16.3122 9.3874 16.3305C9.43099 16.3664 9.45865 16.418 9.46438 16.4742C9.47011 16.5303 9.45344 16.5865 9.418 16.6304C9.36904 16.6916 8.12062 18.2093 6.57845 18.2093Z" fill="#100249"/>
<path d="M10.7705 17.5969C10.7137 17.5969 10.6592 17.5743 10.6191 17.5341C10.5789 17.494 10.5563 17.4395 10.5563 17.3827V9.91659C10.5563 8.69265 10.2748 7.82976 9.71181 7.34019C9.53926 7.19183 9.33898 7.0792 9.12258 7.00881C8.90617 6.93843 8.67795 6.9117 8.45115 6.93016C8.41641 6.93591 8.38079 6.93275 8.34761 6.92097C8.31443 6.9092 8.28478 6.8892 8.26143 6.86285C8.25531 6.85061 7.47199 5.9816 5.94817 5.9816C4.29585 5.9816 2.62516 7.33407 2.62516 9.92271V17.3827C2.62516 17.4395 2.60259 17.494 2.56242 17.5341C2.52226 17.5743 2.46777 17.5969 2.41097 17.5969C2.35416 17.5969 2.29968 17.5743 2.25951 17.5341C2.21934 17.494 2.19678 17.4395 2.19678 17.3827V9.92271C2.19678 7.05256 4.08166 5.55322 5.94817 5.55322C7.40467 5.55322 8.25531 6.25087 8.50622 6.49566C9.04964 6.47628 9.58047 6.66196 9.99332 7.01584C10.6543 7.59109 10.9847 8.56413 10.9847 9.91659V17.3827C10.9847 17.4395 10.9621 17.494 10.922 17.5341C10.8818 17.5743 10.8273 17.5969 10.7705 17.5969Z" fill="#100249"/>
<path d="M3.20076 14.1575C3.14396 14.1575 3.08948 14.1349 3.04931 14.0947C3.00914 14.0546 2.98657 14.0001 2.98657 13.9433C2.98657 11.2506 4.98161 9.9532 6.4381 9.00464C7.17247 8.52731 7.80892 8.11728 7.91908 7.69502C7.92021 7.67215 7.92432 7.64952 7.93132 7.6277C7.94187 7.57171 7.97423 7.5222 8.02128 7.49006C8.06834 7.45793 8.12623 7.4458 8.18223 7.45635C8.23822 7.4669 8.28773 7.49926 8.31987 7.54632C8.352 7.59337 8.36413 7.65127 8.35358 7.70726L8.33522 7.78682C7.94968 9.80633 9.91411 11.2812 9.93247 11.2934C9.95578 11.3095 9.97569 11.33 9.99107 11.3538C10.0065 11.3775 10.017 11.4041 10.0221 11.432C10.0272 11.4598 10.0268 11.4884 10.0209 11.5161C10.0149 11.5437 10.0036 11.57 9.98755 11.5933C9.97148 11.6166 9.95097 11.6365 9.9272 11.6519C9.90343 11.6673 9.87687 11.6778 9.84902 11.6829C9.82118 11.688 9.7926 11.6876 9.76491 11.6817C9.73723 11.6758 9.71099 11.6644 9.68768 11.6484C9.18586 11.2934 7.96192 10.0756 7.864 8.50283C7.55801 8.78433 7.14187 9.05972 6.67065 9.36571C5.22028 10.3081 3.41495 11.4831 3.41495 13.9433C3.41495 14.0001 3.39239 14.0546 3.35222 14.0947C3.31205 14.1349 3.25757 14.1575 3.20076 14.1575Z" fill="#100249"/>
</g>
<defs>
<clipPath id="clip0">
<rect width="24" height="21.8182" fill="white" transform="translate(0 1)"/>
</clipPath>
</defs>
</svg>
