<svg width="24" height="24" viewBox="0 0 24 24" fill="none" xmlns="http://www.w3.org/2000/svg">
<g clip-path="url(#clip0)">
<path d="M20.6847 5.73216H19.306V4.62129C19.306 4.53771 19.2728 4.45755 19.2137 4.39845C19.1546 4.33935 19.0744 4.30615 18.9908 4.30615H17.7066V3.88071H19.5502C19.6338 3.88071 19.714 3.84751 19.7731 3.78841C19.8322 3.72931 19.8654 3.64915 19.8654 3.56557V0.949906C19.8654 0.866325 19.8322 0.786168 19.7731 0.727068C19.714 0.667968 19.6338 0.634766 19.5502 0.634766H13.8147C13.7736 0.634752 13.733 0.642953 13.6952 0.658885C13.6574 0.674816 13.6232 0.698155 13.5946 0.727527C13.5659 0.756899 13.5435 0.791708 13.5285 0.829901C13.5135 0.868094 13.5064 0.908897 13.5074 0.949906V3.56557C13.5064 3.60658 13.5135 3.64738 13.5285 3.68557C13.5435 3.72377 13.5659 3.75857 13.5946 3.78795C13.6232 3.81732 13.6574 3.84066 13.6952 3.85659C13.733 3.87252 13.7736 3.88072 13.8147 3.88071H15.6582V4.30615H14.374C14.2918 4.3082 14.2137 4.34231 14.1563 4.40119C14.0989 4.46007 14.0668 4.53906 14.0668 4.62129V5.73216H8.38638V4.62129C8.38638 4.53771 8.35318 4.45755 8.29408 4.39845C8.23498 4.33935 8.15482 4.30615 8.07124 4.30615H5.2665C5.22547 4.30613 5.18487 4.31433 5.14706 4.33027C5.10926 4.3462 5.07503 4.36954 5.0464 4.39891C5.01776 4.42828 4.99529 4.46309 4.98032 4.50128C4.96535 4.53948 4.95818 4.58028 4.95924 4.62129V5.73216H2.35145C2.26924 5.73421 2.1911 5.76832 2.13369 5.8272C2.07628 5.88608 2.04416 5.96506 2.04419 6.0473V17.739C2.04416 17.8212 2.07628 17.9002 2.13369 17.9591C2.1911 18.018 2.26924 18.0521 2.35145 18.0541H20.6847C20.7683 18.0541 20.8485 18.0209 20.9076 17.9618C20.9667 17.9027 20.9999 17.8226 20.9999 17.739V6.0473C20.9999 5.96372 20.9667 5.88356 20.9076 5.82446C20.8485 5.76536 20.7683 5.73216 20.6847 5.73216ZM14.1298 1.25717H19.2351V3.25831H14.1298V1.25717ZM16.2885 3.88071H17.0842V4.30615H16.2885V3.88071ZM14.6892 4.93643H18.6757V5.73216H14.6892V4.93643ZM5.58164 4.93643H7.76398V5.73216H5.58164V4.93643ZM7.25188 7.63087H9.63119V8.69447H7.25188V7.63087ZM2.66659 17.4239V6.35456H6.6216V17.4239H2.66659ZM20.3696 17.4239H7.25188V9.31687H9.93845C9.97945 9.31793 10.0203 9.31075 10.0585 9.29579C10.0966 9.28082 10.1315 9.25835 10.1608 9.22971C10.1902 9.20108 10.2135 9.16685 10.2295 9.12905C10.2454 9.09124 10.2536 9.05063 10.2536 9.00961V7.31573C10.2536 7.27471 10.2454 7.2341 10.2295 7.1963C10.2135 7.1585 10.1902 7.12427 10.1608 7.09564C10.1315 7.067 10.0966 7.04453 10.0585 7.02956C10.0203 7.01459 9.97945 7.00742 9.93845 7.00847H7.25188V6.35456H20.3696V17.4239Z" fill="#100249"/>
<path d="M6.97749 -0.00488281H6.34912V0.91222H6.97749V-0.00488281Z" fill="#100249"/>
<path d="M6.97749 1.99951H6.34912V2.91661H6.97749V1.99951Z" fill="#100249"/>
<path d="M8.12272 1.13721H7.20801V1.76876H8.12272V1.13721Z" fill="#100249"/>
<path d="M6.11808 1.13721H5.20337V1.76876H6.11808V1.13721Z" fill="#100249"/>
<path d="M15.4849 13.5713C15.2202 13.7214 14.9208 13.7994 14.6165 13.7977C14.3121 13.7961 14.0136 13.7146 13.7506 13.5616C13.4875 13.4085 13.2692 13.1892 13.1173 12.9255C12.9655 12.6618 12.8854 12.3629 12.885 12.0586C12.8867 11.812 12.9376 11.5683 13.0347 11.3417C13.0531 11.3051 13.0638 11.2653 13.0661 11.2245C13.0685 11.1837 13.0624 11.1428 13.0484 11.1045C13.0344 11.0661 13.0127 11.031 12.9846 11.0013C12.9565 10.9716 12.9226 10.948 12.885 10.932C12.8473 10.9148 12.8065 10.9053 12.7651 10.904C12.7236 10.9026 12.6823 10.9095 12.6435 10.9241C12.6048 10.9387 12.5692 10.9609 12.539 10.9893C12.5088 11.0177 12.4845 11.0517 12.4675 11.0895C12.308 11.4493 12.2405 11.843 12.2711 12.2353C12.3017 12.6276 12.4295 13.0061 12.6429 13.3367C12.8562 13.6673 13.1485 13.9396 13.4934 14.1291C13.8382 14.3186 14.2248 14.4193 14.6183 14.4221C15.0305 14.4223 15.4355 14.3136 15.7922 14.107C15.8632 14.0663 15.9152 13.999 15.9366 13.9199C15.958 13.8409 15.9472 13.7565 15.9064 13.6855C15.8657 13.6145 15.7984 13.5625 15.7193 13.5411C15.6403 13.5197 15.556 13.5305 15.4849 13.5713Z" fill="#100249"/>
<path d="M8.21324 15.9277C8.11641 15.9298 8.02423 15.9697 7.95648 16.0389C7.88874 16.1082 7.85081 16.2012 7.85083 16.298C7.86376 16.386 7.90788 16.4663 7.97514 16.5244C8.0424 16.5825 8.12831 16.6144 8.21718 16.6144C8.30605 16.6144 8.39196 16.5825 8.45922 16.5244C8.52648 16.4663 8.5706 16.386 8.58353 16.298C8.58353 16.1998 8.54452 16.1056 8.47508 16.0362C8.40563 15.9667 8.31145 15.9277 8.21324 15.9277Z" fill="#100249"/>
<path d="M9.61583 15.9277C9.51899 15.9298 9.42682 15.9697 9.35907 16.0389C9.29132 16.1082 9.2534 16.2012 9.25342 16.298C9.26635 16.386 9.31047 16.4663 9.37773 16.5244C9.44499 16.5825 9.53089 16.6144 9.61977 16.6144C9.70864 16.6144 9.79455 16.5825 9.86181 16.5244C9.92907 16.4663 9.97319 16.386 9.98612 16.298C9.98612 16.1998 9.94711 16.1056 9.87766 16.0362C9.80822 15.9667 9.71404 15.9277 9.61583 15.9277Z" fill="#100249"/>
<path d="M14.6182 8.45801C13.9065 8.45957 13.2111 8.67205 12.6201 9.06862C12.029 9.46519 11.5688 10.0281 11.2975 10.6861C11.0261 11.3441 10.956 12.0678 11.0958 12.7657C11.2356 13.4636 11.5791 14.1044 12.083 14.6072C12.5868 15.1099 13.2284 15.4521 13.9266 15.5903C14.6248 15.7286 15.3483 15.6569 16.0058 15.3841C16.6632 15.1114 17.2251 14.6499 17.6203 14.058C18.0156 13.4661 18.2266 12.7703 18.2266 12.0585C18.2245 11.1029 17.8434 10.1871 17.1669 9.51208C16.4905 8.83709 15.5739 8.45801 14.6182 8.45801ZM14.6182 15.0366C14.0292 15.0366 13.4534 14.8619 12.9637 14.5347C12.474 14.2074 12.0923 13.7423 11.8669 13.1981C11.6414 12.654 11.5825 12.0552 11.6974 11.4775C11.8123 10.8998 12.0959 10.3692 12.5124 9.95267C12.9289 9.53618 13.4596 9.25254 14.0372 9.13763C14.6149 9.02272 15.2137 9.0817 15.7579 9.3071C16.3021 9.53251 16.7672 9.91421 17.0944 10.404C17.4216 10.8937 17.5963 11.4695 17.5963 12.0585C17.5963 12.8483 17.2825 13.6058 16.7241 14.1643C16.1656 14.7228 15.4081 15.0366 14.6182 15.0366Z" fill="#100249"/>
<path d="M14.6184 7.0083C13.6199 7.00986 12.6443 7.30737 11.8149 7.86323C10.9854 8.41909 10.3394 9.20835 9.95833 10.1313C9.57731 11.0542 9.47842 12.0694 9.67417 13.0485C9.86992 14.0276 10.3515 14.9267 11.0581 15.6322C11.7647 16.3377 12.6645 16.8178 13.644 17.0121C14.6234 17.2063 15.6384 17.1058 16.5607 16.7234C17.483 16.3409 18.2713 15.6936 18.8259 14.8633C19.3804 14.033 19.6764 13.0569 19.6764 12.0584C19.6743 10.7183 19.1405 9.43382 18.1922 8.48697C17.2438 7.54011 15.9585 7.0083 14.6184 7.0083ZM14.6184 16.4861C13.7427 16.4861 12.8866 16.2265 12.1585 15.7399C11.4304 15.2534 10.8629 14.5619 10.5277 13.7528C10.1926 12.9438 10.1049 12.0535 10.2758 11.1946C10.4466 10.3357 10.8683 9.54678 11.4875 8.92755C12.1068 8.30832 12.8957 7.88662 13.7546 7.71578C14.6135 7.54493 15.5038 7.63262 16.3128 7.96774C17.1219 8.30287 17.8134 8.87038 18.2999 9.59851C18.7865 10.3266 19.0461 11.1827 19.0461 12.0584C19.044 13.2321 18.5769 14.3571 17.747 15.187C16.9171 16.0169 15.7921 16.4841 14.6184 16.4861Z" fill="#100249"/>
<path d="M15.5764 1.46238L14.5613 2.69824L14.8833 2.96278L15.8985 1.72692L15.5764 1.46238Z" fill="#100249"/>
<path d="M17.1159 1.63716L16.0923 2.86865L16.4132 3.13539L17.4368 1.9039L17.1159 1.63716Z" fill="#100249"/>
<path d="M18.5646 1.63912L17.541 2.87061L17.8619 3.13734L18.8855 1.90585L18.5646 1.63912Z" fill="#100249"/>
<path d="M13.2946 10.7287C13.3392 10.7368 13.3851 10.7346 13.4288 10.7223C13.4725 10.71 13.5128 10.688 13.5467 10.6578C13.6889 10.5318 13.8514 10.4306 14.0273 10.3585C14.1031 10.3255 14.1629 10.2641 14.1938 10.1875C14.2248 10.1108 14.2244 10.0251 14.1927 9.94877C14.1779 9.91083 14.1558 9.8762 14.1275 9.84689C14.0993 9.81758 14.0655 9.79419 14.0281 9.77806C13.9907 9.76193 13.9505 9.7534 13.9098 9.75295C13.869 9.7525 13.8286 9.76015 13.7909 9.77545C13.5524 9.87613 13.3316 10.0145 13.137 10.1851C13.0749 10.2398 13.0367 10.3167 13.0308 10.3993C13.0249 10.4818 13.0517 10.5634 13.1055 10.6263C13.1526 10.684 13.2205 10.7207 13.2946 10.7287Z" fill="#100249"/>
</g>
<defs>
<clipPath id="clip0">
<rect width="24" height="24" fill="white"/>
</clipPath>
</defs>
</svg>
