<svg width="24" height="24" viewBox="0 0 24 24" fill="none" xmlns="http://www.w3.org/2000/svg">
<g clip-path="url(#clip0)">
<path d="M19.8546 16.6471H19.8076L8.99016 13.5772C8.96723 13.5713 8.94573 13.5609 8.9269 13.5466C8.90807 13.5322 8.8923 13.5142 8.88052 13.4937C8.85982 13.4516 8.85429 13.4037 8.86486 13.358L12.3315 1.13086C12.3375 1.10816 12.348 1.08689 12.3623 1.06827C12.3767 1.04965 12.3945 1.03407 12.4149 1.02241C12.4353 1.01076 12.4578 1.00327 12.4811 1.00037C12.5045 0.997482 12.5281 0.999246 12.5507 1.00556L23.363 4.07017C23.3859 4.07608 23.4074 4.08652 23.4263 4.10086C23.4451 4.11521 23.4609 4.13317 23.4726 4.1537C23.4933 4.1958 23.4989 4.24374 23.4883 4.28944L20.0269 16.5165C20.0116 16.5611 19.9823 16.5996 19.9434 16.6262C19.9152 16.638 19.8852 16.6451 19.8546 16.6471ZM9.25642 13.2849L19.7293 16.2503L23.0967 4.36254L12.6238 1.39712L9.25642 13.2849Z" fill="#100249"/>
<path d="M21.6289 5.31749L13.3752 2.98193L10.9815 11.4411L19.2352 13.7766L21.6289 5.31749Z" fill="white"/>
<path d="M19.2284 13.9576L19.1814 13.9472L10.9325 11.6135C10.887 11.6001 10.8479 11.5703 10.8229 11.53C10.8022 11.4879 10.7967 11.4399 10.8072 11.3942L13.2036 2.93653C13.2096 2.91383 13.2201 2.89255 13.2344 2.87393C13.2488 2.85532 13.2667 2.83973 13.287 2.82808C13.3074 2.81642 13.33 2.80893 13.3533 2.80604C13.3766 2.80315 13.4002 2.80491 13.4229 2.81123L21.6717 5.15014C21.6946 5.15605 21.7161 5.16649 21.735 5.18084C21.7538 5.19518 21.7696 5.21315 21.7814 5.23368C21.8021 5.27577 21.8076 5.32372 21.797 5.36942L19.4007 13.8271C19.3957 13.8497 19.3855 13.8709 19.3711 13.889C19.3566 13.9071 19.3381 13.9217 19.3171 13.9315C19.2904 13.9479 19.2598 13.9569 19.2284 13.9576ZM11.1988 11.3211L19.1083 13.5608L21.4055 5.44251L13.496 3.20279L11.1988 11.3211Z" fill="#100249"/>
<path d="M19.98 15.9467L19.933 15.9363L14.707 14.4588C14.6613 14.4463 14.6225 14.4162 14.599 14.3751C14.5755 14.334 14.5693 14.2852 14.5817 14.2395C14.5942 14.1938 14.6243 14.1549 14.6654 14.1314C14.7065 14.1079 14.7553 14.1017 14.801 14.1142L20.0322 15.5969C20.0754 15.6073 20.1132 15.6334 20.138 15.6702C20.1628 15.707 20.173 15.7518 20.1664 15.7957C20.1599 15.8396 20.1371 15.8795 20.1026 15.9075C20.0681 15.9354 20.0244 15.9494 19.98 15.9467Z" fill="#100249"/>
<path d="M13.9185 14.2295H13.8715L13.4225 14.099C13.3813 14.0828 13.3477 14.0517 13.3282 14.012C13.3087 13.9722 13.3048 13.9266 13.3172 13.8841C13.3296 13.8415 13.3575 13.8052 13.3953 13.7822C13.4332 13.7592 13.4783 13.7511 13.5217 13.7597L13.9707 13.885C14.0139 13.8953 14.0516 13.9215 14.0765 13.9583C14.1013 13.9951 14.1114 14.0399 14.1049 14.0838C14.0983 14.1277 14.0756 14.1676 14.0411 14.1955C14.0065 14.2235 13.9628 14.2375 13.9185 14.2348V14.2295Z" fill="#100249"/>
<path d="M3.65455 22.7133C3.62329 22.712 3.59283 22.703 3.5658 22.6872C3.5261 22.6638 3.49637 22.6267 3.48227 22.5828L0.00521782 10.3557C-0.00773497 10.3107 -0.00238315 10.2624 0.0201076 10.2214C0.0425984 10.1803 0.0804061 10.1498 0.125296 10.1364L10.9376 7.06139C10.9833 7.05082 11.0312 7.05635 11.0733 7.07705C11.0944 7.08805 11.1129 7.10358 11.1273 7.12253C11.1418 7.14149 11.1518 7.16339 11.1568 7.18669L14.6391 19.4086C14.6454 19.4312 14.6472 19.4549 14.6443 19.4782C14.6414 19.5015 14.6339 19.524 14.6223 19.5444C14.6106 19.5648 14.595 19.5827 14.5764 19.597C14.5578 19.6113 14.5365 19.6218 14.5138 19.6278L3.70154 22.7029L3.65455 22.7133ZM0.396778 10.4288L3.77463 22.3166L14.2476 19.3355L10.8645 7.45295L0.396778 10.4288Z" fill="#100249"/>
<path d="M10.1219 9.03725L1.87231 11.3872L4.28077 19.8422L12.5304 17.4922L10.1219 9.03725Z" fill="white"/>
<path d="M4.2758 20.0194C4.23719 20.0209 4.19921 20.0093 4.16797 19.9866C4.13672 19.9639 4.11402 19.9313 4.10351 19.8941L1.69673 11.4365C1.69041 11.4138 1.68864 11.3902 1.69154 11.3669C1.69443 11.3435 1.70192 11.321 1.71357 11.3006C1.72523 11.2802 1.74082 11.2624 1.75943 11.248C1.77805 11.2337 1.79932 11.2232 1.82203 11.2172L10.0657 8.87304C10.088 8.86523 10.1118 8.86258 10.1353 8.86529C10.1588 8.868 10.1814 8.87601 10.2014 8.8887C10.2224 8.89855 10.2408 8.91309 10.2553 8.93119C10.2698 8.94929 10.2799 8.97048 10.2849 8.99312L12.6917 17.4508C12.6995 17.4723 12.7021 17.4953 12.6994 17.5179C12.6967 17.5406 12.6887 17.5623 12.6761 17.5813C12.6654 17.6023 12.6507 17.621 12.6328 17.6362C12.6148 17.6514 12.5941 17.6629 12.5716 17.6701L4.32279 20.0142L4.2758 20.0194ZM2.08829 11.5095L4.39588 19.6227L12.3054 17.3725L9.99257 9.25938L2.08829 11.5095Z" fill="#100249"/>
<path d="M8.9799 20.4575C8.94172 20.4566 8.90484 20.4434 8.87474 20.4199C8.84464 20.3964 8.82293 20.3638 8.81284 20.3269C8.79988 20.2819 8.80523 20.2336 8.82772 20.1926C8.85022 20.1515 8.88802 20.121 8.93291 20.1077L14.1589 18.625C14.1812 18.6178 14.2047 18.6153 14.228 18.6175C14.2513 18.6197 14.2739 18.6266 14.2944 18.6379C14.3149 18.6491 14.3329 18.6644 14.3473 18.6828C14.3617 18.7012 14.3722 18.7224 14.3782 18.745C14.3912 18.79 14.3858 18.8383 14.3633 18.8794C14.3408 18.9205 14.303 18.951 14.2581 18.9643L9.03211 20.4522L8.9799 20.4575Z" fill="#100249"/>
<path d="M7.70056 20.8234C7.66148 20.8236 7.62341 20.811 7.59226 20.7874C7.56111 20.7638 7.53861 20.7305 7.52827 20.6929C7.52195 20.6702 7.52019 20.6466 7.52308 20.6233C7.52597 20.6 7.53346 20.5774 7.54512 20.557C7.55677 20.5367 7.57236 20.5188 7.59098 20.5044C7.60959 20.4901 7.63087 20.4796 7.65357 20.4736L8.09734 20.3483C8.12029 20.3392 8.14487 20.3351 8.16952 20.3361C8.19417 20.3371 8.21833 20.3432 8.24049 20.354C8.26264 20.3649 8.28228 20.3803 8.29817 20.3991C8.31406 20.418 8.32584 20.44 8.33276 20.4636C8.33968 20.4873 8.34159 20.5122 8.33836 20.5366C8.33514 20.5611 8.32686 20.5846 8.31404 20.6057C8.30122 20.6268 8.28415 20.6449 8.26392 20.659C8.24369 20.6732 8.22074 20.6829 8.19653 20.6876L7.74754 20.8182L7.70056 20.8234Z" fill="#100249"/>
<path d="M17.3852 18.4739H6.14479C6.09771 18.4739 6.05256 18.4552 6.01928 18.4219C5.98599 18.3886 5.96729 18.3435 5.96729 18.2964V5.58376C5.96729 5.53668 5.98599 5.49153 6.01928 5.45824C6.05256 5.42495 6.09771 5.40625 6.14479 5.40625H17.3852C17.4322 5.40625 17.4774 5.42495 17.5107 5.45824C17.544 5.49153 17.5627 5.53668 17.5627 5.58376V18.2964C17.5627 18.3435 17.544 18.3886 17.5107 18.4219C17.4774 18.4552 17.4322 18.4739 17.3852 18.4739ZM6.3223 18.1189H17.2077V5.76126H6.3223V18.1189Z" fill="#100249"/>
<path d="M16.0541 7.08691H7.47632V15.8782H16.0541V7.08691Z" fill="white"/>
<path d="M16.0541 16.0565H7.47633C7.42926 16.0565 7.38411 16.0378 7.35082 16.0045C7.31753 15.9712 7.29883 15.9261 7.29883 15.879V7.08717C7.29883 7.0401 7.31753 6.99495 7.35082 6.96166C7.38411 6.92837 7.42926 6.90967 7.47633 6.90967H16.0541C16.1012 6.90967 16.1463 6.92837 16.1796 6.96166C16.2129 6.99495 16.2316 7.0401 16.2316 7.08717V15.879C16.2303 15.9257 16.2112 15.97 16.1782 16.0031C16.1452 16.0361 16.1008 16.0552 16.0541 16.0565ZM7.65384 15.7015H15.8766V7.26468H7.65384V15.7015Z" fill="#100249"/>
<path d="M17.3174 17.7642H11.8826C11.8355 17.7642 11.7904 17.7455 11.7571 17.7122C11.7238 17.6789 11.7051 17.6338 11.7051 17.5867C11.7051 17.5396 11.7238 17.4945 11.7571 17.4612C11.7904 17.4279 11.8355 17.4092 11.8826 17.4092H17.3174C17.3645 17.4092 17.4097 17.4279 17.443 17.4612C17.4762 17.4945 17.4949 17.5396 17.4949 17.5867C17.4949 17.6338 17.4762 17.6789 17.443 17.7122C17.4097 17.7455 17.3645 17.7642 17.3174 17.7642Z" fill="#100249"/>
<path d="M11.0159 17.7642H10.5513C10.5042 17.7642 10.4591 17.7455 10.4258 17.7122C10.3925 17.6789 10.3738 17.6338 10.3738 17.5867C10.3738 17.5396 10.3925 17.4945 10.4258 17.4612C10.4591 17.4279 10.5042 17.4092 10.5513 17.4092H11.0159C11.063 17.4092 11.1082 17.4279 11.1415 17.4612C11.1747 17.4945 11.1934 17.5396 11.1934 17.5867C11.1934 17.6338 11.1747 17.6789 11.1415 17.7122C11.1082 17.7455 11.063 17.7642 11.0159 17.7642Z" fill="#100249"/>
<path d="M9.85156 12.9346L10.6295 13.3157L11.068 13.7699L10.9949 14.5008L10.3058 14.3755V13.6394L9.85156 12.9346Z" fill="white"/>
<path d="M12.2796 12.6162C12.2325 12.6162 12.1874 12.5975 12.1541 12.5642C12.1208 12.5309 12.1021 12.4858 12.1021 12.4387V12.1933C11.9992 12.2424 11.8871 12.2691 11.7732 12.2716C11.6564 12.2684 11.542 12.238 11.439 12.1829V12.4387C11.439 12.4858 11.4203 12.5309 11.387 12.5642C11.3538 12.5975 11.3086 12.6162 11.2615 12.6162C11.2145 12.6162 11.1693 12.5975 11.136 12.5642C11.1027 12.5309 11.084 12.4858 11.084 12.4387V11.7965C11.0832 11.7583 11.0947 11.7209 11.1169 11.6898C11.139 11.6587 11.1706 11.6355 11.207 11.6238C11.2433 11.6121 11.2825 11.6124 11.3187 11.6247C11.3548 11.637 11.3861 11.6606 11.4077 11.6921C11.4547 11.7548 11.6113 11.9166 11.7732 11.9166C11.935 11.9166 12.1334 11.7182 12.1334 11.713C12.1567 11.6846 12.188 11.6639 12.2232 11.6535C12.2584 11.6432 12.2959 11.6437 12.3308 11.6549C12.3658 11.6662 12.3965 11.6877 12.419 11.7167C12.4415 11.7457 12.4548 11.7808 12.4571 11.8174V12.4387C12.4571 12.4858 12.4384 12.5309 12.4051 12.5642C12.3718 12.5975 12.3267 12.6162 12.2796 12.6162Z" fill="#100249"/>
<path d="M11.778 12.272C11.1881 12.272 10.8174 11.4941 10.8174 11.1652V10.9146L11.1724 11.1652C11.1724 11.3741 11.4491 11.917 11.778 11.917C12.1069 11.917 12.3523 11.3271 12.3523 11.1652V10.7893C12.3523 10.766 12.3569 10.7429 12.3658 10.7214C12.3747 10.6999 12.3878 10.6803 12.4043 10.6638C12.4208 10.6473 12.4403 10.6342 12.4619 10.6253C12.4834 10.6164 12.5065 10.6118 12.5298 10.6118C12.5531 10.6118 12.5762 10.6164 12.5977 10.6253C12.6193 10.6342 12.6388 10.6473 12.6553 10.6638C12.6718 10.6803 12.6849 10.6999 12.6938 10.7214C12.7027 10.7429 12.7073 10.766 12.7073 10.7893V11.1652C12.7073 11.4941 12.3941 12.272 11.778 12.272Z" fill="#100249"/>
<path d="M13.271 14.6369C13.2239 14.6369 13.1788 14.6182 13.1455 14.5849C13.1122 14.5516 13.0935 14.5065 13.0935 14.4594V13.5719C13.0949 13.539 13.1038 13.5068 13.1196 13.4779L15.0931 10.2984C15.114 10.264 15.1214 10.2229 15.1137 10.1833C15.1059 10.1437 15.0837 10.1084 15.0513 10.0844C15.0345 10.0712 15.0152 10.0617 14.9945 10.0563C14.9739 10.0509 14.9523 10.0498 14.9312 10.053C14.8894 10.0623 14.8523 10.0864 14.8268 10.1209L12.9891 12.747C12.9638 12.7823 12.9265 12.8071 12.8842 12.8167C12.8418 12.8263 12.7974 12.8201 12.7594 12.7992L12.1955 12.5016C12.154 12.4794 12.123 12.4417 12.1093 12.3967C12.0955 12.3516 12.1003 12.303 12.1224 12.2614C12.1446 12.2199 12.1823 12.1889 12.2274 12.1752C12.2724 12.1615 12.3211 12.1662 12.3626 12.1884L12.7907 12.4128L14.5345 9.91731C14.613 9.81046 14.7296 9.73788 14.8601 9.71458C14.9907 9.69129 15.1252 9.71906 15.2358 9.79215C15.3465 9.86524 15.4248 9.97806 15.4546 10.1073C15.4844 10.2365 15.4634 10.3722 15.3959 10.4864L13.4485 13.6241V14.4594C13.4485 14.4827 13.4439 14.5058 13.435 14.5273C13.4261 14.5489 13.413 14.5684 13.3965 14.5849C13.3801 14.6014 13.3605 14.6145 13.3389 14.6234C13.3174 14.6323 13.2943 14.6369 13.271 14.6369Z" fill="#100249"/>
<path d="M10.3422 14.6362C10.2951 14.6362 10.2499 14.6175 10.2167 14.5842C10.1834 14.5509 10.1647 14.5057 10.1647 14.4587V13.6233L8.13378 10.4647C8.06906 10.3618 8.04397 10.2389 8.06318 10.1188C8.08239 9.99873 8.14459 9.88975 8.23819 9.81214C8.29108 9.76917 8.35209 9.73731 8.41757 9.71847C8.48306 9.69963 8.55168 9.6942 8.61931 9.70251C8.68715 9.71226 8.75226 9.73583 8.81063 9.77175C8.869 9.80767 8.91938 9.85518 8.95866 9.91134L10.7285 12.4173L11.1827 12.1876C11.2036 12.1768 11.2264 12.1703 11.2498 12.1684C11.2733 12.1665 11.2968 12.1693 11.3192 12.1766C11.3415 12.1839 11.3622 12.1955 11.38 12.2109C11.3978 12.2262 11.4124 12.2449 11.4229 12.2659C11.443 12.3076 11.4461 12.3554 11.4315 12.3993C11.4168 12.4432 11.3857 12.4796 11.3446 12.5009L10.7546 12.7984C10.7174 12.819 10.6738 12.825 10.6324 12.8154C10.5909 12.8058 10.5545 12.7811 10.5301 12.7462L8.67152 10.1149C8.64726 10.0835 8.61164 10.0629 8.57232 10.0575C8.53383 10.0528 8.49493 10.0621 8.46269 10.0836C8.43586 10.106 8.41794 10.1373 8.4122 10.1718C8.40645 10.2063 8.41325 10.2417 8.43136 10.2716L10.0707 12.8193L10.4936 13.4771C10.5102 13.5057 10.5192 13.5381 10.5197 13.5711V14.4587C10.5197 14.5057 10.501 14.5509 10.4677 14.5842C10.4344 14.6175 10.3893 14.6362 10.3422 14.6362Z" fill="#100249"/>
<path d="M11.7625 13.1274C11.2404 13.1274 10.8436 12.621 10.8227 12.6001C10.7959 12.5619 10.7842 12.5151 10.79 12.4687C10.7958 12.4224 10.8186 12.3799 10.8541 12.3495C10.8918 12.3214 10.939 12.3091 10.9856 12.3149C11.0323 12.3207 11.0749 12.3443 11.1046 12.3808C11.1099 12.386 11.4127 12.7724 11.7625 12.7724C12.1123 12.7724 12.3994 12.4174 12.4046 12.4121C12.4194 12.394 12.4375 12.3789 12.4581 12.3677C12.4787 12.3566 12.5012 12.3496 12.5245 12.3472C12.5478 12.3448 12.5713 12.3469 12.5937 12.3536C12.6162 12.3603 12.6371 12.3713 12.6552 12.386C12.6734 12.4008 12.6885 12.4189 12.6996 12.4395C12.7108 12.4601 12.7178 12.4827 12.7202 12.5059C12.7226 12.5292 12.7204 12.5527 12.7138 12.5751C12.7071 12.5976 12.6961 12.6185 12.6813 12.6366C12.6657 12.6575 12.2845 13.1274 11.7625 13.1274Z" fill="#100249"/>
<path d="M13.0051 12.5483H12.9947C12.9716 12.5477 12.9489 12.5424 12.9279 12.5328C12.9069 12.5232 12.888 12.5094 12.8724 12.4924C12.8568 12.4753 12.8448 12.4553 12.8371 12.4335C12.8294 12.4118 12.8262 12.3887 12.8276 12.3656C12.8276 12.3552 12.8589 11.5512 12.8589 10.4913C12.8589 10.1624 12.7858 9.92228 12.6449 9.79698C12.5634 9.72413 12.4564 9.68658 12.3473 9.69257C12.3185 9.69611 12.2893 9.69275 12.262 9.68277C12.2348 9.67278 12.2103 9.65646 12.1907 9.63514C12.1802 9.6247 11.9766 9.40542 11.5694 9.40542C11.1622 9.40542 10.6714 9.7761 10.6714 10.4913V12.3552C10.6714 12.4023 10.6527 12.4474 10.6194 12.4807C10.5861 12.514 10.541 12.5327 10.4939 12.5327C10.4468 12.5327 10.4017 12.514 10.3684 12.4807C10.3351 12.4474 10.3164 12.4023 10.3164 12.3552V10.4913C10.3164 9.54638 10.9481 9.05041 11.5694 9.05041C11.8695 9.04637 12.1615 9.14802 12.3943 9.33755C12.5714 9.34248 12.7412 9.40894 12.8746 9.5255C13.0991 9.71867 13.2139 10.0476 13.2139 10.4913C13.2139 11.5564 13.1826 12.3708 13.1774 12.3813C13.1774 12.4037 13.1729 12.4258 13.1642 12.4464C13.1555 12.4671 13.1427 12.4857 13.1266 12.5013C13.1106 12.5169 13.0915 12.5291 13.0707 12.5372C13.0498 12.5452 13.0275 12.549 13.0051 12.5483Z" fill="#100249"/>
<path d="M10.7341 11.8954C10.6871 11.8954 10.6419 11.8767 10.6086 11.8435C10.5753 11.8102 10.5566 11.765 10.5566 11.7179C10.5566 10.8356 11.2197 10.4023 11.6582 10.1204C11.8357 10.0055 12.0341 9.875 12.0602 9.79147C12.0863 9.70793 12.0602 9.7758 12.0655 9.77058C12.0698 9.74825 12.0786 9.72701 12.0912 9.70808C12.1038 9.68915 12.12 9.6729 12.139 9.66028C12.1579 9.64766 12.1791 9.63892 12.2015 9.63455C12.2238 9.63018 12.2468 9.63028 12.2691 9.63484C12.3144 9.64255 12.3549 9.66754 12.3822 9.70454C12.4095 9.74154 12.4213 9.78767 12.4152 9.83323C12.41 9.84367 12.41 9.85412 12.4048 9.86456C12.3056 10.4023 12.8433 10.8147 12.8486 10.8147C12.8867 10.8429 12.9123 10.8848 12.9201 10.9316C12.9279 10.9784 12.9172 11.0263 12.8903 11.0653C12.8631 11.1031 12.8221 11.1286 12.7762 11.1364C12.7303 11.1442 12.6832 11.1337 12.645 11.1071C12.6397 11.1071 12.196 10.7782 12.0707 10.2718L11.8514 10.418C11.4337 10.6894 10.9117 11.0288 10.9117 11.7179C10.9117 11.7413 10.9071 11.7643 10.8981 11.7859C10.8892 11.8074 10.8761 11.827 10.8597 11.8435C10.8432 11.8599 10.8236 11.873 10.8021 11.8819C10.7805 11.8909 10.7575 11.8954 10.7341 11.8954Z" fill="#100249"/>
<path d="M16.0541 16.0565H7.47633C7.42926 16.0565 7.38411 16.0378 7.35082 16.0045C7.31753 15.9712 7.29883 15.9261 7.29883 15.879V7.08717C7.29883 7.0401 7.31753 6.99495 7.35082 6.96166C7.38411 6.92837 7.42926 6.90967 7.47633 6.90967H16.0541C16.1012 6.90967 16.1463 6.92837 16.1796 6.96166C16.2129 6.99495 16.2316 7.0401 16.2316 7.08717V15.879C16.2303 15.9257 16.2112 15.97 16.1782 16.0031C16.1452 16.0361 16.1008 16.0552 16.0541 16.0565ZM7.65384 15.7015H15.8766V7.26468H7.65384V15.7015Z" fill="#100249"/>
<path d="M2.05175 6.50779C1.89067 6.50779 1.7332 6.46003 1.59927 6.37054C1.46533 6.28104 1.36094 6.15385 1.2993 6.00503C1.23766 5.8562 1.22153 5.69245 1.25295 5.53446C1.28438 5.37647 1.36195 5.23135 1.47585 5.11745C1.58975 5.00355 1.73487 4.92598 1.89286 4.89456C2.05085 4.86313 2.2146 4.87926 2.36342 4.9409C2.51224 5.00255 2.63944 5.10693 2.72893 5.24087C2.81843 5.3748 2.86619 5.53227 2.86619 5.69335C2.86619 5.90935 2.78039 6.11651 2.62765 6.26925C2.47491 6.42199 2.26775 6.50779 2.05175 6.50779ZM2.05175 5.23392C1.96088 5.23392 1.87206 5.26087 1.7965 5.31135C1.72095 5.36183 1.66206 5.43358 1.62729 5.51753C1.59252 5.60148 1.58342 5.69386 1.60115 5.78298C1.61887 5.8721 1.66263 5.95396 1.72688 6.01822C1.79114 6.08247 1.873 6.12623 1.96212 6.14395C2.05124 6.16168 2.14362 6.15258 2.22757 6.11781C2.31152 6.08304 2.38327 6.02415 2.43375 5.9486C2.48423 5.87304 2.51118 5.78422 2.51118 5.69335C2.50982 5.57192 2.46098 5.45585 2.37512 5.36998C2.28925 5.28412 2.17318 5.23528 2.05175 5.23392Z" fill="#100249"/>
<path d="M23.1856 16.7197C23.0243 16.7207 22.8664 16.6738 22.7317 16.585C22.5971 16.4961 22.4919 16.3693 22.4295 16.2206C22.367 16.0718 22.3502 15.9079 22.381 15.7496C22.4118 15.5913 22.489 15.4456 22.6027 15.3312C22.7164 15.2168 22.8615 15.1387 23.0196 15.1069C23.1777 15.075 23.3417 15.0908 23.4909 15.1523C23.64 15.2138 23.7675 15.3182 23.8572 15.4522C23.947 15.5863 23.9949 15.7439 23.9949 15.9052C23.9949 16.1203 23.9098 16.3267 23.7582 16.4793C23.6065 16.6319 23.4007 16.7183 23.1856 16.7197ZM23.1856 15.4458C23.0945 15.4448 23.0052 15.4708 22.929 15.5207C22.8527 15.5705 22.793 15.6419 22.7575 15.7258C22.7219 15.8096 22.712 15.9022 22.7292 15.9916C22.7463 16.0811 22.7897 16.1634 22.8537 16.2282C22.9177 16.293 22.9996 16.3373 23.0888 16.3554C23.1781 16.3736 23.2707 16.3648 23.355 16.3302C23.4393 16.2956 23.5113 16.2367 23.562 16.161C23.6128 16.0854 23.6398 15.9963 23.6398 15.9052C23.6398 15.7843 23.5922 15.6682 23.5071 15.5822C23.4221 15.4962 23.3066 15.4472 23.1856 15.4458Z" fill="#100249"/>
<path d="M2.99675 4.03842C3.16687 4.03842 3.30477 3.90051 3.30477 3.73039C3.30477 3.56027 3.16687 3.42236 2.99675 3.42236C2.82663 3.42236 2.68872 3.56027 2.68872 3.73039C2.68872 3.90051 2.82663 4.03842 2.99675 4.03842Z" fill="#100249"/>
<path d="M7.42399 2.44076C7.59411 2.44076 7.73202 2.30285 7.73202 2.13273C7.73202 1.96262 7.59411 1.82471 7.42399 1.82471C7.25387 1.82471 7.11597 1.96262 7.11597 2.13273C7.11597 2.30285 7.25387 2.44076 7.42399 2.44076Z" fill="#100249"/>
<path d="M16.905 22.7811C17.0751 22.7811 17.213 22.6432 17.213 22.4731C17.213 22.3029 17.0751 22.165 16.905 22.165C16.7348 22.165 16.5969 22.3029 16.5969 22.4731C16.5969 22.6432 16.7348 22.7811 16.905 22.7811Z" fill="#100249"/>
<path d="M17.8603 21.742C18.0304 21.742 18.1683 21.6041 18.1683 21.434C18.1683 21.2639 18.0304 21.126 17.8603 21.126C17.6902 21.126 17.5522 21.2639 17.5522 21.434C17.5522 21.6041 17.6902 21.742 17.8603 21.742Z" fill="#100249"/>
<path d="M23.1855 19.9828C23.3556 19.9828 23.4935 19.8448 23.4935 19.6747C23.4935 19.5046 23.3556 19.3667 23.1855 19.3667C23.0153 19.3667 22.8774 19.5046 22.8774 19.6747C22.8774 19.8448 23.0153 19.9828 23.1855 19.9828Z" fill="#100249"/>
</g>
<defs>
<clipPath id="clip0">
<rect width="24" height="21.99" fill="white" transform="translate(0 1)"/>
</clipPath>
</defs>
</svg>
