<svg xmlns="http://www.w3.org/2000/svg" width="24" height="22" fill="none"  xmlns:v="https://vecta.io/nano"><path d="M11.049.927c.299-.921 1.603-.921 1.902 0l1.968 6.056a1 1 0 0 0 .951.691h6.367c.969 0 1.371 1.24.588 1.809l-5.151 3.743a1 1 0 0 0-.363 1.118l1.968 6.056c.299.921-.755 1.687-1.539 1.118l-5.151-3.743a1 1 0 0 0-1.176 0l-5.151 3.743c-.784.569-1.838-.197-1.539-1.118l1.968-6.056a1 1 0 0 0-.363-1.118L1.175 9.483c-.784-.569-.381-1.809.588-1.809H8.13a1 1 0 0 0 .951-.691L11.049.927z" fill="#fac241"/></svg>