<?xml version="1.0" encoding="iso-8859-1" ?>
<svg version="1.1" xmlns="http://www.w3.org/2000/svg" xmlns:xlink="http://www.w3.org/1999/xlink" 
    viewBox="0 0 120 100" width="120" height="100">
    
    
    <!-- ITEM 0 -->
    <g>
        <defs>
            <clipPath id="clip-path-id-viewbox-item-0">
                <rect x="0.0" y="0.0" width="224.85889" height="159.36767"/>
            </clipPath>
        </defs>
        <g transform="translate(0.0 7.0) rotate(0.0 59.0 42.0) scale(0.5247735590974411 0.5270830652164269)">
            <g clip-path="url(#clip-path-id-viewbox-item-0)" transform="translate(-0.0 -0.0)">
                
  
  <path d="M224.85889,19.72754A19.6072,19.6072,0,0,0,219.07763,5.7711v.00033a19.75962,19.75962,0,0,0-27.91223,0l-105.922,105.922L33.69317,60.14316a19.73664,19.73664,0,0,0-27.91191-.00032l-.00065.00065A19.73663,19.73663,0,0,0,5.78094,88.0554l64.70272,64.703c.25089.28127.50883.55847.77866.8283a19.60777,19.60777,0,0,0,13.95611,5.78093,19.87755,19.87755,0,0,0,4.56883-.53317c.06845-.016.13739-.02933.20572-.04609.12027-.02973.23885-.06458.35843-.09654a19.61018,19.61018,0,0,0,8.87342-5.10545c.27064-.27064.52926-.54865.78084-.8308l119.072-119.072A19.60811,19.60811,0,0,0,224.85889,19.72754Z" style="         fill: #00a99a;       "></path>

            </g>
        </g>
    </g>
    
</svg>